<?xml version="1.0" encoding="UTF-8" standalone="no"?>
<!-- Created with Inkscape (http://www.inkscape.org/) -->

<svg
   width="31.999998"
   height="31.999998"
   viewBox="0 0 8.466666 8.4666661"
   version="1.1"
   id="svg1"
   xmlns="http://www.w3.org/2000/svg"
   xmlns:svg="http://www.w3.org/2000/svg">
  <defs
     id="defs1" />
  <g
     id="layer1">
    <path
       style="fill:#dbc361;fill-opacity:1;stroke-width:0.264583"
       id="path1"
       d="M 2.7594006,4.7794226 C 2.4640143,4.9499639 1.4236811,5.0573777 1.0900518,5.1282927 0.75642263,5.1992078 -0.23765796,5.524222 -0.57687213,5.4885691 -0.91608637,5.4529162 -1.8208698,4.9283232 -2.1324644,4.7895924 -2.4440589,4.6508615 -3.4393255,4.3294976 -3.6927993,4.1012687 -3.9462732,3.8730398 -4.3699103,2.9168168 -4.5404517,2.6214305 -4.710993,2.3260442 -5.3272876,1.4810523 -5.3982027,1.1474231 c -0.070915,-0.33362923 0.1484091,-1.35623757 0.1840619,-1.69545182 0.035653,-0.33921417 0.033734,-1.38507588 0.1724647,-1.69667038 0.1387309,-0.3115946 0.9172419,-1.0099866 1.1454708,-1.2634605 0.2282289,-0.2534738 0.8414184,-1.1007217 1.1368047,-1.271263 0.2953863,-0.1705413 1.3357195,-0.2779551 1.6693488,-0.3488701 0.33362917,-0.070915 1.32770976,-0.3959293 1.66692393,-0.3602764 0.33921424,0.035653 1.24399767,0.5602459 1.55559227,0.6989767 0.3115945,0.1387309 1.3068611,0.4600948 1.5603349,0.6883237 0.2534739,0.2282289 0.677111,1.1844519 0.8476524,1.4798382 0.1705413,0.2953863 0.7868359,1.1403782 0.857751,1.4740074 C 5.4691177,-0.81379387 5.2497936,0.20881447 5.2141408,0.54802872 5.1784879,0.88724289 5.1804069,1.9331046 5.0416761,2.2446991 4.9029452,2.5562937 4.1244342,3.2546857 3.8962053,3.5081596 3.6679764,3.7616334 3.0547869,4.6088813 2.7594006,4.7794226 Z"
       transform="matrix(0.76057022,0.01434453,-0.01434453,0.76057022,4.2333333,4.2333333)" />
    <g
       id="g3"
       transform="translate(0.20775052,-0.29778711)">
      <rect
         style="fill:#000000;fill-opacity:1;stroke-width:0.264583"
         id="rect1"
         width="0.54165196"
         height="4.8484244"
         x="4.182838"
         y="0.60097677"
         transform="rotate(22.806579)"
         ry="0.27082598" />
      <rect
         style="fill:#000000;fill-opacity:1;stroke-width:0.264583"
         id="rect2"
         width="0.54165196"
         height="4.8484244"
         x="3.013644"
         y="3.6878083"
         transform="rotate(-20.688683)"
         ry="0.27082598" />
      <path
         style="fill:#000000;fill-opacity:1;stroke-width:0.256693"
         id="path2"
         d="m -1.509983,-4.1365553 a 0.66145831,0.66145831 0 0 1 -0.5847583,0.3322873 0.66145831,0.66145831 0 0 1 -0.5734169,-0.351497 0.66145831,0.66145831 0 0 1 0.030778,-0.6718705"
         transform="rotate(148.24253)" />
    </g>
    <rect
       style="fill:#000000;fill-opacity:1;stroke-width:0.397282"
       id="rect3"
       width="5.0060072"
       height="0.49585673"
       x="1.7303298"
       y="3.985405"
       ry="0.24792837" />
  </g>
</svg>
